HIERARCHY
ROOT root
{
	OFFSET	0	13.1	24.9
	CHANNELS 6  Xposition Yposition Zposition Xrotation Yrotation Zrotation
	JOINT spine_1
	{
		OFFSET	0	9.99999	0
		CHANNELS 3  Xrotation Yrotation Zrotation
		JOINT spine_2
		{
			OFFSET	0	112	-10
			CHANNELS 3  Xrotation Yrotation Zrotation
			JOINT spine_3
			{
				OFFSET	0	206.5	19.3
				CHANNELS 3  Xrotation Yrotation Zrotation
				JOINT spine_4
				{
					OFFSET	0	110.4	14.6
					CHANNELS 3  Xrotation Yrotation Zrotation
					JOINT neck_1
					{
						OFFSET	0	71.8	-50.3
						CHANNELS 3  Xrotation Yrotation Zrotation
						JOINT neck_2
						{
							OFFSET	0	86.2	-25.8
							CHANNELS 3  Xrotation Yrotation Zrotation
							JOINT head_ee
							{
								OFFSET	0	179.8	-8.7
								CHANNELS 3  Xrotation Yrotation Zrotation
								End Site
								{
									OFFSET	1	0	0
								}
							}
						}
					}
					JOINT left_clavicle
					{
						OFFSET	-43.2	22.4	-70.8
						CHANNELS 3  Xrotation Yrotation Zrotation
						JOINT left_shoulder
						{
							OFFSET	-93.9	-5.79999	48.7
							CHANNELS 3  Xrotation Yrotation Zrotation
							JOINT left_elbow
							{
								OFFSET	-291.4	-30.8	15.2
								CHANNELS 3  Xrotation Yrotation Zrotation
								JOINT left_lowarm_twist
								{
									OFFSET	-110.7	-3.89999	13.6
									CHANNELS 3  Xrotation Yrotation Zrotation
									JOINT left_hand
									{
										OFFSET	-110.7	-3.89999	13.6
										CHANNELS 3  Xrotation Yrotation Zrotation
										JOINT left_ee
										{
											OFFSET	-80.8	-5.10001	12.1
											CHANNELS 3  Xrotation Yrotation Zrotation
											End Site
											{
												OFFSET	1	0	0
											}
										}
									}
								}
							}
						}
					}
					JOINT right_clavicle
					{
						OFFSET	43.2	22.4	-70.8
						CHANNELS 3  Xrotation Yrotation Zrotation
						JOINT right_shoulder
						{
							OFFSET	93.9	-5.79999	48.7
							CHANNELS 3  Xrotation Yrotation Zrotation
							JOINT right_elbow
							{
								OFFSET	291.4	-30.8	15.2
								CHANNELS 3  Xrotation Yrotation Zrotation
								JOINT right_lowarm_twist
								{
									OFFSET	110.7	-3.89999	13.6
									CHANNELS 3  Xrotation Yrotation Zrotation
									JOINT right_hand
									{
										OFFSET	110.7	-3.89999	13.6
										CHANNELS 3  Xrotation Yrotation Zrotation
										JOINT right_ee
										{
											OFFSET	80.8	-5.10001	12.1
											CHANNELS 3  Xrotation Yrotation Zrotation
											End Site
											{
												OFFSET	1	0	0
											}
										}
									}
								}
							}
						}
					}
				}
			}
		}
	}
	JOINT left_hip
	{
		OFFSET	-82.8	-127.5	0.300001
		CHANNELS 3  Xrotation Yrotation Zrotation
		JOINT left_knee
		{
			OFFSET	-28.2	-396.7	2.2
			CHANNELS 3  Xrotation Yrotation Zrotation
			JOINT left_ankle
			{
				OFFSET	-11.7	-411.3	35.4
				CHANNELS 3  Xrotation Yrotation Zrotation
				JOINT left_toes
				{
					OFFSET	0	-60	-88.6
					CHANNELS 3  Xrotation Yrotation Zrotation
					JOINT left_foot_ee
					{
						OFFSET	-22.5	-16.5	-42.2
						CHANNELS 3  Xrotation Yrotation Zrotation
						End Site
						{
							OFFSET	1	0	0
						}
					}
				}
			}
		}
	}
	JOINT right_hip
	{
		OFFSET	82.8	-127.5	0.300001
		CHANNELS 3  Xrotation Yrotation Zrotation
		JOINT right_knee
		{
			OFFSET	28.2	-396.7	2.2
			CHANNELS 3  Xrotation Yrotation Zrotation
			JOINT right_ankle
			{
				OFFSET	11.7	-411.3	35.4
				CHANNELS 3  Xrotation Yrotation Zrotation
				JOINT right_toes
				{
					OFFSET	0	-60	-88.6
					CHANNELS 3  Xrotation Yrotation Zrotation
					JOINT right_foot_ee
					{
						OFFSET	22.5	-16.5	-42.2
						CHANNELS 3  Xrotation Yrotation Zrotation
						End Site
						{
							OFFSET	1	0	0
						}
					}
				}
			}
		}
	}
}
MOTION
Frames: 6
Frame Time: 0.02
3282.14 684.617 -1538.97 -13.3176 66.842 10.7913 0.526306 0.920666 2.79417 0.530344 0.741075 2.84703 0.569366 0.155812 2.9377 0.557855 0.617618 2.87631 -2.68147 16.7173 -9.41519 -1.44698 37.5975 -7.87008 -0.0 0.0 -0.0 -4.03151 16.6336 -4.36494 -19.6009 -13.38 79.0627 0.315104 -8.87209 0.0244454 -42.7603 -3.24939 4.25179 2.65573 15.3861 23.4338 -0.0 0.0 -0.0 13.5552 27.1898 -26.8154 9.32158 39.0743 -58.7742 2.06391 45.6291 -0.868281 -8.2796 0.364214 -0.992935 -4.44629 7.11407 35.1727 0.0 0.0 0.0 28.2214 -10.4404 -9.88423 0.89682 -0.0379673 -0.132383 -0.13493 18.6334 0.0200701 -29.6634 0.0 0.0 -0.0 0.0 -0.0 -8.70755 -8.7764 5.51896 -12.3664 -0.308483 -1.86906 33.9277 22.3125 4.85806 16.8933 -0.0 -0.0 0.0 0.0 0.0 
3261.74 686.899 -1538.12 -13.3424 66.5078 11.2303 0.631013 0.787086 2.74454 0.634996 0.610919 2.78901 0.666606 0.0445999 2.85474 0.655575 0.494712 2.81193 -1.44173 17.2687 -8.88837 0.0241089 38.0925 -7.74136 -0.0 0.0 -0.0 -3.84488 15.8608 -4.23757 -18.3811 -13.4278 78.7623 0.353076 -9.92108 0.0306452 -43.1808 -3.29562 4.27964 2.63411 15.5858 23.3454 -0.0 0.0 -0.0 13.617 27.3959 -26.9319 8.70955 38.3263 -59.6331 1.99116 44.6016 -0.816735 -8.19248 0.35964 -0.982775 -4.515 6.38095 35.3547 0.0 0.0 0.0 28.1206 -10.5171 -10.1927 -1.5583 0.061019 0.231352 -0.147701 18.3367 0.0219503 -29.3762 0.0 0.0 -0.0 0.0 -0.0 -9.22685 -8.70441 5.75539 -13.181 -0.314547 -1.99391 34.9392 23.66 5.02837 16.7837 -0.0 -0.0 0.0 0.0 0.0 
3241.8 687.701 -1535.26 -14.8427 65.8914 13.3929 0.595688 0.678825 2.7149 0.599647 0.50476 2.75255 0.625669 -0.0543248 2.79789 0.614955 0.388059 2.7714 -1.08712 17.5218 -8.9535 0.491356 38.5637 -7.94551 -0.0 0.0 -0.0 -3.51212 15.3687 -3.80718 -17.4963 -13.4967 78.6644 0.382313 -10.7243 0.0358844 -43.3395 -3.31312 4.29006 2.67295 15.5852 23.6103 -0.0 0.0 -0.0 13.5403 27.4705 -26.7441 8.39806 38.2304 -60.1862 1.94271 43.8965 -0.78293 -8.14244 0.35702 -0.976936 -4.56411 5.9809 35.5478 0.0 0.0 0.0 27.858 -10.1613 -10.4476 -1.54483 0.0605184 0.229345 -0.0925817 19.1586 0.0137931 -29.1444 0.0 0.0 -0.0 0.0 -0.0 -9.23459 -8.60498 5.81522 -13.4701 -0.316272 -2.03822 35.17 23.8763 5.06325 16.7299 -0.0 -0.0 0.0 0.0 0.0 
3221.54 690.929 -1533.72 -14.6215 65.6853 13.0221 0.792783 0.650142 2.66333 0.796601 0.479414 2.69927 0.820652 -0.0592251 2.74084 0.810365 0.37422 2.71584 -0.338431 17.025 -8.19976 1.19966 37.0086 -7.40776 -0.0 0.0 -0.0 -3.59594 15.0985 -3.99883 -16.8517 -13.6981 78.4682 0.401346 -11.2448 0.0395111 -43.76 -3.35962 4.31744 2.76917 15.6262 24.2817 -0.0 0.0 -0.0 13.6375 27.7177 -26.9364 7.4421 38.0084 -61.052 1.76572 41.172 -0.663244 -8.10343 0.35498 -0.972382 -4.47817 5.60283 34.6381 0.0 0.0 0.0 27.8274 -9.9478 -9.89331 -4.89452 0.170351 0.731619 0.0514163 19.2833 -0.00766094 -29.0833 0.0 0.0 -0.0 0.0 -0.0 -9.46216 -8.16749 6.90618 -14.1061 -0.31928 -2.13576 33.5233 23.6178 4.8745 15.7149 -0.0 -0.0 0.0 0.0 0.0 
3194.0 693.034 -1528.31 -15.3862 64.6654 13.8356 1.14069 0.585949 2.47116 1.14399 0.427566 2.50341 1.16357 -0.0564874 2.53901 1.15474 0.345081 2.5161 0.811225 16.5607 -6.62232 2.24368 34.7891 -6.03382 -0.0 0.0 -0.0 -3.33379 14.8491 -3.62494 -15.9866 -13.8261 78.1318 0.428445 -11.9828 0.0449666 -43.8994 -3.37508 4.32644 2.93756 16.2272 25.6157 -0.0 0.0 -0.0 13.6062 27.7884 -26.8544 5.07373 37.4818 -62.0478 1.62542 38.8375 -0.573032 -8.10769 0.355203 -0.97288 -4.38349 4.86186 33.4718 0.0 0.0 0.0 27.2646 -9.97695 -9.44418 -5.63891 0.190756 0.844035 2.85708 19.8769 -0.423733 -28.4675 0.0 0.0 -0.0 0.0 -0.0 -9.90093 -7.39106 7.53888 -12.9376 -0.312921 -1.95659 31.4216 22.1854 4.57652 13.2482 -0.0 -0.0 0.0 0.0 0.0 
3169.52 694.488 -1524.68 -15.2307 64.468 14.0198 1.27112 0.570009 2.3491 1.27409 0.419418 2.38059 1.29223 -0.0356892 2.41697 1.28425 0.346362 2.3923 2.17286 16.5465 -5.20745 3.59221 33.415 -4.83744 -0.0 0.0 -0.0 -3.33631 14.7424 -3.65057 -15.7235 -14.1551 77.8753 0.534842 -14.8395 0.0696517 -44.4266 -3.43375 4.36015 2.88836 16.1157 25.2437 -0.0 0.0 -0.0 13.6671 27.2158 -27.0719 3.45633 36.4019 -62.3745 1.43237 35.3556 -0.456536 -7.89823 0.344304 -0.948408 -4.21982 5.63565 32.5655 0.0 0.0 0.0 26.3894 -9.53756 -9.05104 -6.81181 0.219936 1.02166 6.28129 19.2624 -0.921064 -27.4951 0.0 0.0 -0.0 0.0 -0.0 -9.87006 -7.35283 7.80476 -13.5842 -0.316891 -2.05573 29.1272 19.0402 4.19294 13.8307 -0.0 -0.0 0.0 0.0 0.0 
